# xmcd
#
# Track frame offsets:
#	150
#	13007
#	30790
#	40410
#	51967
#	62117
#	80250
#	92337
#	103602
#	113445
#
# Disc length: 1661
#
# Revision: 1
# Processed by: cddbd v1.5.1PL0 Copyright (c) Steve Scherf et al.
# Submitted via: inCDius 1.1b8
# Normalized: r0:DSETVAR1
#
DISCID=6a067b0a
DTITLE=Various Artist - Truckin' On
DYEAR=1900
DGENRE=
TTITLE0=Girl On The Billboard - Del Reeves
TTITLE1=The Gear Jammer and The Hobo - Red Sovine and Johnnyy Bond
TTITLE2=Truck Driver's Queen - Moore and Napier
TTITLE3=One Is A Lonely Number - George Jones
TTITLE4=Looking At The World Thru A Windshield - Del Reeves
TTITLE5=Giddy-Up-Go - Red Sovine
TTITLE6=Eight More Miles To Louisville - Grandpa Jones
TTITLE7=Truck Drivin' Man - Jimmy Martin
TTITLE8=I'll Have Another Cup Of Coffee (Then I'll Go) - Claude Gray
TTITLE9=Woman Behind The Man Behind The Wheel - Red Sovine
EXTD=
EXTT0=
EXTT1=
EXTT2=
EXTT3=
EXTT4=
EXTT5=
EXTT6=
EXTT7=
EXTT8=
EXTT9=
PLAYORDER=
